<?xml version="1.0" encoding="UTF-8" standalone="no"?>
<!-- Created with Inkscape (http://www.inkscape.org/) -->

<svg
   width="310.84464mm"
   height="188.93985mm"
   viewBox="0 0 310.84464 188.93985"
   version="1.1"
   id="svg25174"
   sodipodi:docname="laser.svg"
   inkscape:version="1.2.2 (b0a8486, 2022-12-01)"
   xmlns:inkscape="http://www.inkscape.org/namespaces/inkscape"
   xmlns:sodipodi="http://sodipodi.sourceforge.net/DTD/sodipodi-0.dtd"
   xmlns="http://www.w3.org/2000/svg"
   xmlns:svg="http://www.w3.org/2000/svg">
  <sodipodi:namedview
     id="namedview25176"
     pagecolor="#ffffff"
     bordercolor="#000000"
     borderopacity="0.25"
     inkscape:showpageshadow="2"
     inkscape:pageopacity="0.0"
     inkscape:pagecheckerboard="0"
     inkscape:deskcolor="#d1d1d1"
     inkscape:document-units="mm"
     showgrid="false"
     inkscape:zoom="1.5699092"
     inkscape:cx="622.96597"
     inkscape:cy="407.98538"
     inkscape:window-width="3832"
     inkscape:window-height="2099"
     inkscape:window-x="4"
     inkscape:window-y="25"
     inkscape:window-maximized="0"
     inkscape:current-layer="layer1" />
  <defs
     id="defs25171">
    <inkscape:path-effect
       effect="offset"
       id="path-effect5977"
       is_visible="true"
       lpeversion="1.2"
       linejoin_type="miter"
       unit="mm"
       offset="3"
       miter_limit="4"
       attempt_force_join="false"
       update_on_knot_move="true" />
    <inkscape:path-effect
       effect="offset"
       id="path-effect34563"
       is_visible="true"
       lpeversion="1.2"
       linejoin_type="miter"
       unit="mm"
       offset="-0.8"
       miter_limit="4"
       attempt_force_join="false"
       update_on_knot_move="true" />
    <inkscape:path-effect
       effect="offset"
       id="path-effect34565"
       is_visible="true"
       lpeversion="1.2"
       linejoin_type="miter"
       unit="mm"
       offset="-1.6"
       miter_limit="4"
       attempt_force_join="false"
       update_on_knot_move="true" />
    <inkscape:path-effect
       effect="offset"
       id="path-effect34561"
       is_visible="true"
       lpeversion="1.2"
       linejoin_type="miter"
       unit="mm"
       offset="-2.4"
       miter_limit="4"
       attempt_force_join="false"
       update_on_knot_move="true" />
  </defs>
  <g
     inkscape:label="Kw"
     inkscape:groupmode="layer"
     id="layer1"
     transform="translate(62.618657,-45.841116)">
    <g
       id="layer3"
       style="display:inline"
       inkscape:label="outline"
       inkscape:highlight-color="#ffa400"
       transform="matrix(-1,0,0,1,192.07249,144.51536)">
      <path
         id="path2519"
         style="display:inline;fill:none;stroke:#ffff00;stroke-width:0.2;stroke-dasharray:none"
         d="m 171.16375,21.171396 -12.90929,3.08508 h -11.97033 a 4.1159649,3.4675024 0 0 1 -4.11603,3.46749 h -17.71416 a 4.1159649,3.4675024 0 0 1 -0.006,0 4.1159649,3.4675024 0 0 1 -4.11603,-3.46749 H 78.612286 l 0.0031,0.008 a 47.326374,47.326374 0 0 0 3.171382,14.14746 1.3007406,1.3007406 0 0 0 -5.17e-4,0 1.3007406,1.3007406 0 0 0 -1.300695,1.30069 1.3007406,1.3007406 0 0 0 0.01292,0.14832 l -0.0015,5.1e-4 A 49.086449,49.086449 0 0 0 100.5402,63.148924 h 50.58601 a 49.086449,49.086449 0 0 0 15.6037,-14.978928 1.2912242,1.2912242 0 0 0 0.0563,-0.37155 1.2912242,1.2912242 0 0 0 -1.29088,-1.2914 h -2.59467 a 3.3791966,3.3791966 0 0 1 -0.0134,5.2e-4 3.3791966,3.3791966 0 0 1 -3.37964,-3.37964 3.3791966,3.3791966 0 0 1 3.37964,-3.37912 3.3791966,3.3791966 0 0 1 0.0434,5.1e-4 h 8.28425 a 49.086449,49.086449 0 0 0 3.27215,-12.27883 h -1.92185 l -0.66404,-3.21428 z"
         inkscape:label="outline" />
      <path
         id="rect2226"
         style="display:inline;fill:none;stroke:#00ff00;stroke-width:0.2;stroke-dasharray:none"
         d="m 168.96285,29.941916 a 1.2694082,1.2694082 0 0 0 -1.26969,1.26918 1.2694082,1.2694082 0 0 0 1.26969,1.26969 h 0.27388 a 1.2694082,1.2694082 0 0 0 1.26918,-1.26969 1.2694082,1.2694082 0 0 0 -1.26918,-1.26918 z M 92.301487,43.227264 a 3.3312035,3.3312035 0 0 1 -3.331203,3.331204 3.3312035,3.3312035 0 0 1 -3.331204,-3.331204 3.3312035,3.3312035 0 0 1 3.331204,-3.331203 3.3312035,3.3312035 0 0 1 3.331203,3.331203 z m 20.197023,-3.227493 a 1.2131616,1.2131616 0 0 1 -1.21316,1.213162 1.2131616,1.2131616 0 0 1 -1.21316,-1.213162 1.2131616,1.2131616 0 0 1 1.21316,-1.213161 1.2131616,1.2131616 0 0 1 1.21316,1.213161 z M 88.352035,31.211306 a 1.2694082,1.2694082 0 0 1 -1.269409,1.269408 1.2694082,1.2694082 0 0 1 -1.269408,-1.269408 1.2694082,1.2694082 0 0 1 1.269408,-1.269409 1.2694082,1.2694082 0 0 1 1.269409,1.269409 z m 10.264449,0 a 2.6735899,2.6735899 0 0 1 -2.67359,2.67359 2.6735899,2.6735899 0 0 1 -2.67359,-2.67359 2.6735899,2.6735899 0 0 1 2.67359,-2.67359 2.6735899,2.6735899 0 0 1 2.67359,2.67359 z M 158.79534,38.6436 a 2.6735899,2.6735899 0 0 1 -2.67359,2.67359 2.6735899,2.6735899 0 0 1 -2.67359,-2.67359 2.6735899,2.6735899 0 0 1 2.67359,-2.673589 2.6735899,2.6735899 0 0 1 2.67359,2.673589 z m -30.88742,-5.429824 a 2.0748179,2.0748179 0 0 1 -2.07482,2.074818 2.0748179,2.0748179 0 0 1 -2.07482,-2.074818 2.0748179,2.0748179 0 0 1 2.07482,-2.074818 2.0748179,2.0748179 0 0 1 2.07482,2.074818 z"
         inkscape:label="holes" />
    </g>
  </g>
  <g
     inkscape:groupmode="layer"
     id="layer13"
     inkscape:label="reg"
     transform="translate(40.55756,-27.949829)">
    <g
       id="g37003"
       transform="matrix(-1,0,0,1,226.79833,-3.7082761)">
      <rect
         style="fill:#000000;stroke:#000000;stroke-width:0.295481;stroke-dasharray:none"
         id="rect36978"
         width="14.774053"
         height="14.774053"
         x="55.306789"
         y="148.43098" />
      <rect
         style="fill:none;stroke:#000000;stroke-width:0.295481;stroke-dasharray:none"
         id="rect36980"
         width="14.774053"
         height="14.774053"
         x="55.306789"
         y="163.20503" />
      <rect
         style="fill:#000000;stroke:#000000;stroke-width:0.295481;stroke-dasharray:none"
         id="rect36989"
         width="14.774053"
         height="14.774053"
         x="-55.306789"
         y="-177.97908"
         transform="scale(-1)" />
      <rect
         style="fill:none;stroke:#000000;stroke-width:0.295481;stroke-dasharray:none"
         id="rect36991"
         width="14.774053"
         height="14.774053"
         x="-55.306789"
         y="-163.20503"
         transform="scale(-1)" />
    </g>
    <g
       id="g37013"
       transform="matrix(-1,0,0,1,254.94111,-120.33341)">
      <rect
         style="fill:#000000;stroke:#000000;stroke-width:0.295481;stroke-dasharray:none"
         id="rect37005"
         width="14.774053"
         height="14.774053"
         x="55.306789"
         y="148.43098" />
      <rect
         style="fill:none;stroke:#000000;stroke-width:0.295481;stroke-dasharray:none"
         id="rect37007"
         width="14.774053"
         height="14.774053"
         x="55.306789"
         y="163.20503" />
      <rect
         style="fill:#000000;stroke:#000000;stroke-width:0.295481;stroke-dasharray:none"
         id="rect37009"
         width="14.774053"
         height="14.774053"
         x="-55.306789"
         y="-177.97908"
         transform="scale(-1)" />
      <rect
         style="fill:none;stroke:#000000;stroke-width:0.295481;stroke-dasharray:none"
         id="rect37011"
         width="14.774053"
         height="14.774053"
         x="-55.306789"
         y="-163.20503"
         transform="scale(-1)" />
    </g>
    <g
       id="g37023"
       transform="matrix(-1,0,0,1,89.95521,38.762853)">
      <rect
         style="fill:#000000;stroke:#000000;stroke-width:0.295481;stroke-dasharray:none"
         id="rect37015"
         width="14.774053"
         height="14.774053"
         x="55.306789"
         y="148.43098" />
      <rect
         style="fill:none;stroke:#000000;stroke-width:0.295481;stroke-dasharray:none"
         id="rect37017"
         width="14.774053"
         height="14.774053"
         x="55.306789"
         y="163.20503" />
      <rect
         style="fill:#000000;stroke:#000000;stroke-width:0.295481;stroke-dasharray:none"
         id="rect37019"
         width="14.774053"
         height="14.774053"
         x="-55.306789"
         y="-177.97908"
         transform="scale(-1)" />
      <rect
         style="fill:none;stroke:#000000;stroke-width:0.295481;stroke-dasharray:none"
         id="rect37021"
         width="14.774053"
         height="14.774053"
         x="-55.306789"
         y="-163.20503"
         transform="scale(-1)" />
    </g>
  </g>
  <g
     inkscape:groupmode="layer"
     id="layer4"
     inkscape:label="main"
     style="display:inline"
     transform="translate(59.191957,-1.5511002)">
    <g
       inkscape:groupmode="layer"
       id="layer2-1"
       inkscape:label="outline"
       style="display:inline"
       transform="translate(-91.374497,-76.846292)">
      <path
         id="path4979"
         style="fill:none;stroke:#ffff00;stroke-width:0.2;stroke-dasharray:none"
         d="m 187.60486,105.82828 c 8.09461,0 16.03804,0.38604 23.78718,1.09606 v 4.41212 c -5e-5,1.98157 1.60633,3.58795 3.5879,3.5879 1.98155,5e-5 3.58794,-1.60634 3.58789,-3.5879 v -3.65661 c 65.69019,7.80308 115.96495,38.22556 123.28344,51.58754 v 5.67562 l 1.0759,2.25774 v 24.94318 l -2.4474,4.72323 -0.0842,4.43125 c -5.52459,7.79675 -12.26916,11.97431 -23.61096,14.66422 -1.87686,0.41551 -3.86126,-1.22723 -3.86126,-2.80603 l 0.12661,-3.58686 -13.82035,-6.52001 -2.8484,-0.80202 -5.54954,-0.0631 -0.0481,-0.0491 v -6.8864 c 6e-5,-4.27932 -3.46905,-7.74842 -7.74836,-7.74836 -1.78072,10e-4 -3.50672,0.61556 -4.88756,1.73994 l -11.93984,-6.89002 h -55.07364 l -11.72694,6.36809 -1.40559,-2.358 h -10.39679 -10.39678 l -1.4056,2.358 -11.72693,-6.36809 H 109.0019 l -11.93984,6.89002 c -1.38084,-1.12438 -3.10684,-1.73883 -4.88756,-1.73994 -4.27931,-6e-5 -7.74842,3.46904 -7.74836,7.74836 v 6.8864 l -0.0481,0.0491 -5.54953,0.0631 -2.84841,0.80202 -13.82034,6.52001 0.1266,3.58686 c 0,1.5788 -1.9844,3.22154 -3.86126,2.80603 -11.3418,-2.68991 -18.08637,-6.86747 -23.61096,-14.66422 l -0.0842,-4.43125 -2.4474,-4.72323 v -24.94318 l 1.0759,-2.25774 v -5.67562 c 7.3185,-13.36198 57.59326,-43.78446 123.28345,-51.58754 v 3.65661 c -5e-5,1.98156 1.60633,3.58795 3.58789,3.5879 1.98157,5e-5 3.58795,-1.60633 3.5879,-3.5879 v -4.41212 c 7.74914,-0.71002 15.69257,-1.09606 23.78717,-1.09606 z"
         inkscape:label="outside" />
      <path
         id="path1466-8"
         style="display:inline;fill:none;stroke:#00ff00;stroke-width:0.2"
         d="m 262.61662,175.37728 a 1.2438424,1.2438424 0 0 0 1.24385,1.24385 1.2438424,1.2438424 0 0 0 1.24384,-1.24385 1.2438424,1.2438424 0 0 0 -1.24384,-1.24384 1.2438424,1.2438424 0 0 0 -1.24385,1.24384 z m -101.95977,0 a 1.2438424,1.2438424 0 0 0 1.24384,1.24385 1.2438424,1.2438424 0 0 0 1.24384,-1.24385 1.2438424,1.2438424 0 0 0 -1.24384,-1.24384 1.2438424,1.2438424 0 0 0 -1.24384,1.24384 z m 19.38063,-42.07847 a 7.5673904,7.5673904 0 0 0 7.56739,7.56739 7.5673904,7.5673904 0 0 0 7.56739,-7.56739 7.5673904,7.5673904 0 0 0 -7.56739,-7.56739 7.5673904,7.5673904 0 0 0 -7.56739,7.56739 z m 22.25887,-5.50163 a 2.4521816,2.4521816 0 0 1 -2.45218,2.45218 2.4521816,2.4521816 0 0 1 -2.45218,-2.45218 2.4521816,2.4521816 0 0 1 2.45218,-2.45218 2.4521816,2.4521816 0 0 1 2.45218,2.45218 z m 97.38691,25.79415 a 2.5081561,2.5081561 0 0 1 -2.50816,2.50816 2.5081561,2.5081561 0 0 1 -2.50815,-2.50816 2.5081561,2.5081561 0 0 1 2.50815,-2.50815 2.5081561,2.5081561 0 0 1 2.50816,2.50815 z m 29.95787,54.05777 a 2.4923337,2.4923337 0 0 1 -2.49233,2.49234 2.4923337,2.4923337 0 0 1 -2.49234,-2.49234 2.4923337,2.4923337 0 0 1 2.49234,-2.49233 2.4923337,2.4923337 0 0 1 2.49233,2.49233 z m -11.42617,-17.28048 a 1.7604733,1.7604733 0 0 1 -1.76047,1.76047 1.7604733,1.7604733 0 0 1 -1.76047,-1.76047 1.7604733,1.7604733 0 0 1 1.76047,-1.76048 1.7604733,1.7604733 0 0 1 1.76047,1.76048 z m -32.22362,-7.25173 a 2.4503367,2.4503367 0 0 1 -2.45033,2.45034 2.4503367,2.4503367 0 0 1 -2.45034,-2.45034 2.4503367,2.4503367 0 0 1 2.45034,-2.45033 2.4503367,2.4503367 0 0 1 2.45033,2.45033 z M 240.3375,160.17916 a 1.9624717,1.9624717 0 0 1 -1.96248,1.96248 1.9624717,1.9624717 0 0 1 -1.96247,-1.96248 1.9624717,1.9624717 0 0 1 1.96247,-1.96247 1.9624717,1.9624717 0 0 1 1.96248,1.96247 z m -67.42413,-32.38198 a 2.4521816,2.4521816 0 0 0 2.45218,2.45218 2.4521816,2.4521816 0 0 0 2.45218,-2.45218 2.4521816,2.4521816 0 0 0 -2.45218,-2.45218 2.4521816,2.4521816 0 0 0 -2.45218,2.45218 z m -97.38693,25.79414 a 2.5081561,2.5081561 0 0 0 2.50816,2.50815 2.5081561,2.5081561 0 0 0 2.50816,-2.50815 2.5081561,2.5081561 0 0 0 -2.50816,-2.50816 2.5081561,2.5081561 0 0 0 -2.50816,2.50816 z M 45.56857,207.6491 a 2.4923337,2.4923337 0 0 0 2.49234,2.49234 2.4923337,2.4923337 0 0 0 2.49233,-2.49234 2.4923337,2.4923337 0 0 0 -2.49233,-2.49233 2.4923337,2.4923337 0 0 0 -2.49234,2.49233 z m 11.42617,-17.28048 a 1.7604733,1.7604733 0 0 0 1.76047,1.76047 1.7604733,1.7604733 0 0 0 1.76047,-1.76047 1.7604733,1.7604733 0 0 0 -1.76047,-1.76048 1.7604733,1.7604733 0 0 0 -1.76047,1.76048 z m 32.22362,-7.25173 a 2.4503367,2.4503367 0 0 0 2.45033,2.45034 2.4503367,2.4503367 0 0 0 2.45034,-2.45034 2.4503367,2.4503367 0 0 0 -2.45034,-2.45033 2.4503367,2.4503367 0 0 0 -2.45033,2.45033 z m 45.65388,-22.93773 a 1.9624717,1.9624717 0 0 0 1.96247,1.96248 1.9624717,1.9624717 0 0 0 1.96247,-1.96248 1.9624717,1.9624717 0 0 0 -1.96247,-1.96247 1.9624717,1.9624717 0 0 0 -1.96247,1.96247 z"
         inkscape:label="holes" />
    </g>
  </g>
</svg>
